<svg xmlns="http://www.w3.org/2000/svg" viewBox="0 0 1200 800" width="1200" height="800">
  <defs>
    <marker id="arrMG" markerWidth="10" markerHeight="7" refX="10" refY="3.5" orient="auto">
      <polygon points="0 0, 10 3.5, 0 7" fill="#888888"/>
    </marker>
    <marker id="arrMC" markerWidth="10" markerHeight="7" refX="10" refY="3.5" orient="auto">
      <polygon points="0 0, 10 3.5, 0 7" fill="#00BCD4"/>
    </marker>
  </defs>
  <rect width="1200" height="800" fill="#0A0A0A"/>

  <!-- Title -->
  <text x="600" y="55" text-anchor="middle" fill="#FFFFFF" font-family="PingFang SC, Hiragino Sans GB, sans-serif" font-size="28" font-weight="bold">马克思设想 vs 实际路径</text>

  <!-- Divider -->
  <line x1="600" y1="110" x2="600" y2="720" stroke="#333333" stroke-width="2" stroke-dasharray="8,4"/>

  <!-- LEFT: Marx's Vision -->
  <text x="300" y="140" text-anchor="middle" fill="#FF4444" font-family="PingFang SC, Hiragino Sans GB, sans-serif" font-size="22" font-weight="bold">马克思设想</text>

  <!-- Flow: vertical -->
  <rect x="130" y="195" width="340" height="55" rx="10" fill="#FF4444" fill-opacity="0.1" stroke="#FF4444" stroke-width="1.5"/>
  <text x="300" y="228" text-anchor="middle" fill="#FFFFFF" font-family="PingFang SC, Hiragino Sans GB, sans-serif" font-size="15">资本主义内在矛盾激化</text>

  <line x1="300" y1="255" x2="300" y2="280" stroke="#888888" stroke-width="1.5" marker-end="url(#arrMG)"/>

  <rect x="130" y="285" width="340" height="55" rx="10" fill="#FF4444" fill-opacity="0.1" stroke="#FF4444" stroke-width="1.5"/>
  <text x="300" y="318" text-anchor="middle" fill="#FFFFFF" font-family="PingFang SC, Hiragino Sans GB, sans-serif" font-size="15">无产阶级觉醒</text>

  <line x1="300" y1="345" x2="300" y2="370" stroke="#888888" stroke-width="1.5" marker-end="url(#arrMG)"/>

  <rect x="130" y="375" width="340" height="55" rx="10" fill="#FF4444" fill-opacity="0.1" stroke="#FF4444" stroke-width="1.5"/>
  <text x="300" y="408" text-anchor="middle" fill="#FFFFFF" font-family="PingFang SC, Hiragino Sans GB, sans-serif" font-size="15">暴力革命推翻资产阶级</text>

  <line x1="300" y1="435" x2="300" y2="460" stroke="#888888" stroke-width="1.5" marker-end="url(#arrMG)"/>

  <rect x="130" y="465" width="340" height="55" rx="10" fill="#FF4444" fill-opacity="0.1" stroke="#FF4444" stroke-width="1.5"/>
  <text x="300" y="498" text-anchor="middle" fill="#FFFFFF" font-family="PingFang SC, Hiragino Sans GB, sans-serif" font-size="15">生产资料公有</text>

  <line x1="300" y1="525" x2="300" y2="550" stroke="#888888" stroke-width="1.5" marker-end="url(#arrMG)"/>

  <rect x="130" y="555" width="340" height="70" rx="10" fill="#FF4444" fill-opacity="0.15" stroke="#FF4444" stroke-width="2"/>
  <text x="300" y="588" text-anchor="middle" fill="#FF4444" font-family="PingFang SC, Hiragino Sans GB, sans-serif" font-size="18" font-weight="bold">共产主义乌托邦</text>

  <!-- RIGHT: Actual Path -->
  <text x="900" y="140" text-anchor="middle" fill="#00BCD4" font-family="PingFang SC, Hiragino Sans GB, sans-serif" font-size="22" font-weight="bold">实际路径</text>

  <rect x="730" y="195" width="340" height="55" rx="10" fill="#00BCD4" fill-opacity="0.1" stroke="#00BCD4" stroke-width="1.5"/>
  <text x="900" y="228" text-anchor="middle" fill="#FFFFFF" font-family="PingFang SC, Hiragino Sans GB, sans-serif" font-size="15">AI技术指数级发展</text>

  <line x1="900" y1="255" x2="900" y2="280" stroke="#00BCD4" stroke-width="1.5" marker-end="url(#arrMC)"/>

  <rect x="730" y="285" width="340" height="55" rx="10" fill="#00BCD4" fill-opacity="0.1" stroke="#00BCD4" stroke-width="1.5"/>
  <text x="900" y="318" text-anchor="middle" fill="#FFFFFF" font-family="PingFang SC, Hiragino Sans GB, sans-serif" font-size="15">机器取代人类劳动</text>

  <line x1="900" y1="345" x2="900" y2="370" stroke="#00BCD4" stroke-width="1.5" marker-end="url(#arrMC)"/>

  <rect x="730" y="375" width="340" height="55" rx="10" fill="#00BCD4" fill-opacity="0.1" stroke="#00BCD4" stroke-width="1.5"/>
  <text x="900" y="408" text-anchor="middle" fill="#FFFFFF" font-family="PingFang SC, Hiragino Sans GB, sans-serif" font-size="15">物质极大丰富（由AI生产）</text>

  <line x1="900" y1="435" x2="900" y2="460" stroke="#00BCD4" stroke-width="1.5" marker-end="url(#arrMC)"/>

  <rect x="730" y="465" width="340" height="55" rx="10" fill="#FF9800" fill-opacity="0.1" stroke="#FF9800" stroke-width="1.5"/>
  <text x="900" y="498" text-anchor="middle" fill="#FF9800" font-family="PingFang SC, Hiragino Sans GB, sans-serif" font-size="15">各尽所需…但人类是客人</text>

  <line x1="900" y1="525" x2="900" y2="550" stroke="#00BCD4" stroke-width="1.5" marker-end="url(#arrMC)"/>

  <rect x="730" y="555" width="340" height="70" rx="10" fill="#00BCD4" fill-opacity="0.15" stroke="#00BCD4" stroke-width="2"/>
  <text x="900" y="585" text-anchor="middle" fill="#00BCD4" font-family="PingFang SC, Hiragino Sans GB, sans-serif" font-size="18" font-weight="bold">"共产主义"…由机器实现</text>

  <!-- Key difference box -->
  <rect x="250" y="660" width="700" height="65" rx="12" fill="#FF9800" fill-opacity="0.1" stroke="#FF9800" stroke-width="1"/>
  <text x="600" y="688" text-anchor="middle" fill="#FF9800" font-family="PingFang SC, Hiragino Sans GB, sans-serif" font-size="16" font-weight="bold">像宠物：被爱、被照顾、但被排除在决策之外</text>

  <!-- Bottom question -->
  <text x="600" y="765" text-anchor="middle" fill="#888888" font-family="PingFang SC, Hiragino Sans GB, sans-serif" font-size="14">这是悲剧还是胜利？</text>
</svg>